<svg xmlns="http://www.w3.org/2000/svg" xmlns:xlink="http://www.w3.org/1999/xlink" width="300px" height="306px" viewBox="0 0 300 306"><title>logo-dian-istana-tagline</title><desc>Created with Sketch.</desc><defs></defs><g id="Page-1" stroke="none" stroke-width="1" fill="none" fill-rule="evenodd"><g id="logo-dian-istana-tagline"><path d="M71.615996,56.7875772 L34.5121709,19.7369976 C29.0725286,15.0052368 22.7138599,22.0036796 22.7138599,22.0036796 C30.0511674,13.8346964 24.1892697,8.91445875 24.1892697,8.91445875 L15.6150025,0.00148797509 L11.2384501,3.79086453 C11.2384501,3.79086453 -1.47391952,14.2414096 10.1207154,25.8228157 L56.3452558,71.9798029 C56.3452558,71.9798029 62.9324391,77.2621145 60.0710383,88.6699235 L66.5588674,82.1773922 C66.5588674,82.1773922 82.2319921,67.8035528 71.615996,56.7875772" id="Fill-3" fill="#73BF43"></path><path d="M41.5578738,86.6924046 L27.9066071,72.9335949 L18.9597615,63.9958246 C18.9597615,63.9958246 12.3725782,58.7085531 15.2339791,47.3106639 L8.74615002,53.7932754 C8.74615002,53.7932754 -6.92697466,68.1671147 3.68902136,79.1830903 L12.6756085,88.1456602 L26.3517139,101.939189 C37.3849975,112.538532 51.9105812,96.8999137 51.9105812,96.8999137 L58.284153,90.4123423 C46.8534526,93.2742144 41.5578738,86.6924046 41.5578738,86.6924046" id="Fill-5" fill="#73BF43"></path><path d="M8.99602583,142.697307 L13.6805763,142.697307 C25.2006955,142.697307 31.817685,148.946802 31.817685,159.85366 C31.817685,170.760517 25.2006955,177.019932 13.6805763,177.019932 L8.99602583,177.019932 L8.99602583,142.697307 Z M41.0923994,159.85366 C41.0923994,144.775512 30.2826627,134.647362 14.1872827,134.647362 L-0.000496770989,134.647362 L-0.000496770989,185.069877 L14.1872827,185.069877 C30.2826627,185.069877 41.0923994,174.936767 41.0923994,159.85366 Z" id="Fill-7" fill="#DEEDED"></path><path d="M50.6780924,229.170979 L47.4838549,227.717723 C42.3025335,225.470881 40.8022851,223.923387 40.8022851,220.823439 C40.8022851,217.76317 43.0427223,215.784163 46.5052161,215.784163 C49.9130651,215.784163 51.9498261,217.029102 53.8027819,220.213369 L54.1505216,220.808559 L61.284153,216.438872 L60.9612519,215.873442 C57.876304,210.377854 53.2662692,207.818537 46.5052161,207.818537 C37.9756582,207.818537 32.0193741,213.224846 32.0193741,220.972236 C32.0193741,229.017222 36.7834078,232.781799 43.9170392,235.946226 L47.1659215,237.389562 C52.5906607,239.805041 55.0149031,241.516212 55.0149031,245.290709 C55.0149031,248.911449 51.8504719,251.336848 47.1559861,251.336848 C41.2096374,251.336848 38.5022355,248.197221 36.4456036,244.804637 L36.112767,244.259047 L28.7009439,248.336098 L28.9841033,248.911449 C30.9314456,252.849623 35.8991555,259.461192 47.2901143,259.461192 C57.4093393,259.461192 63.9418778,253.866406 63.9418778,245.216311 C63.9418778,236.705093 58.8648783,232.761959 50.6780924,229.170979" id="Fill-10" fill="#DEEDED"></path><path d="M66.3864878,148.725094 C71.8857427,148.725094 71.8857427,143.219586 71.8857427,143.219586 L71.8857427,134.64885 L71.2747144,134.64885 C69.3571783,134.777808 63.4356682,135.650753 62.9985097,141.429056 L62.9736711,141.429056 L62.9736711,185.071365 L71.8857427,185.071365 L71.8857427,154.225642 C71.8857427,148.725094 66.3864878,148.725094 66.3864878,148.725094" id="Fill-12" fill="#DEEDED"></path><path d="M3.71783408,222.467651 C9.2071535,222.467651 9.2071535,216.972063 9.2071535,216.972063 L9.2071535,208.391407 L8.60606061,208.391407 C6.67858917,208.530285 0.757078987,209.40323 0.319920517,215.176573 L0.285146547,215.176573 L0.285146547,258.808963 L9.2071535,258.808963 L9.2071535,227.968199 C9.2071535,222.467651 3.71783408,222.467651 3.71783408,222.467651" id="Fill-14" fill="#DEEDED"></path><path d="M80.1738698,208.391903 L80.1738698,216.441848 L94.7739692,216.441848 L94.7739692,258.799539 C94.7739692,258.799539 103.045206,258.893778 103.700944,252.138371 L103.700944,216.441848 L118.306011,216.441848 L118.306011,208.391903 L80.1738698,208.391903 Z" id="Fill-16" fill="#DEEDED"></path><polygon id="Fill-18" fill="#DEEDED" points="115.190263 134.140954 113.441629 134.140954 91.8271237 185.069382 100.66468 185.069382 114.181818 150.850914 127.892697 185.069382 137.311475 185.069382"></polygon><polygon id="Fill-20" fill="#DEEDED" points="277.106806 207.881032 275.358172 207.881032 253.763537 258.809459 262.591157 258.809459 276.118231 224.600912 289.819175 258.809459 299.237953 258.809459"></polygon><polygon id="Fill-22" fill="#DEEDED" points="151.623448 207.881032 149.864878 207.881032 128.270243 258.809459 137.097864 258.809459 150.615002 224.600912 164.325882 258.809459 173.74466 258.809459"></polygon><path d="M197.574764,134.649346 C197.058122,134.649346 189.676105,134.778303 189.194237,141.072438 L189.194237,162.305843 L189.194237,162.831594 L189.194237,166.834247 L158.985594,134.138474 L157.018381,134.138474 L157.018381,185.071861 L157.048187,185.071861 C157.569796,185.071861 164.956781,184.932984 165.438649,178.61901 L165.438649,157.331046 L165.438649,152.733203 L195.711873,185.577773 L197.60457,185.577773 L197.60457,134.649346 L197.574764,134.649346 Z" id="Fill-24" fill="#DEEDED"></path><path d="M233.978639,208.391903 C233.457029,208.391903 226.07998,208.530781 225.598112,214.824915 L225.598112,236.0484 L225.598112,236.574151 L225.598112,240.581764 L195.399404,207.881032 L193.422255,207.881032 L193.422255,258.809459 L193.452062,258.809459 C193.963736,258.809459 201.370591,258.675541 201.842524,252.371487 L201.842524,231.073603 L201.842524,226.48072 L232.115748,259.32033 L234.018381,259.32033 L234.018381,208.391903 L233.978639,208.391903 Z" id="Fill-26" fill="#DEEDED"></path><path d="M10.7203179,299.71687 L8.19672131,293.888968 L5.69796324,299.71687 L10.7203179,299.71687 Z M7.05414804,290.828699 L9.42871336,290.828699 L15.8469945,305.505093 L13.1395926,305.505093 L11.6592151,301.988512 L4.75906607,301.988512 L3.25881769,305.505093 L0.630899155,305.505093 L7.05414804,290.828699 Z" id="Fill-28" fill="#DEEDED"></path><polygon id="Fill-30" fill="#DEEDED" points="29.839543 290.932857 32.219076 290.932857 40.0332837 301.006448 40.0332837 290.932857 42.5568803 290.932857 42.5568803 305.505093 40.4058619 305.505093 32.3631396 295.138867 32.3631396 305.505093 29.839543 305.505093"></polygon><path d="M56.2036761,299.71687 L53.6800795,293.888968 L51.1813214,299.71687 L56.2036761,299.71687 Z M52.5375062,290.828699 L54.9120715,290.828699 L61.3303527,305.505093 L58.6229508,305.505093 L57.1425733,301.988512 L50.2424242,301.988512 L48.7421759,305.505093 L46.1142573,305.505093 L52.5375062,290.828699 Z" id="Fill-32" fill="#DEEDED"></path><polygon id="Fill-34" fill="#DEEDED" points="64.8897168 290.932857 67.6219573 290.932857 72.0630899 297.822182 76.4992548 290.932857 79.2314953 290.932857 79.2314953 305.505093 76.668157 305.505093 76.668157 295.054548 72.0630899 301.924033 71.9786388 301.924033 67.4133135 295.094227 67.4133135 305.505093 64.8897168 305.505093"></polygon><polygon id="Fill-36" fill="#DEEDED" points="84.0452062 290.932857 94.8648783 290.932857 94.8648783 293.224339 86.6085445 293.224339 86.6085445 297.013715 93.9259811 297.013715 93.9259811 299.300237 86.6085445 299.300237 86.6085445 303.213611 94.9692002 303.213611 94.9692002 305.505093 84.0452062 305.505093"></polygon><polygon id="Fill-38" fill="#DEEDED" points="113.084948 293.306177 108.455042 293.306177 108.455042 290.930377 120.298063 290.930377 120.298063 293.306177 115.668157 293.306177 115.668157 305.502613 113.084948 305.502613"></polygon><path d="M135.19225,298.258654 L135.19225,298.218975 C135.19225,295.386863 133.125683,293.035862 130.229508,293.035862 C127.333333,293.035862 125.311475,295.347183 125.311475,298.174336 L125.311475,298.218975 C125.311475,301.046128 127.373075,303.402088 130.274218,303.402088 C133.170392,303.402088 135.19225,301.090767 135.19225,298.258654 M122.623944,298.258654 L122.623944,298.218975 C122.623944,294.117124 125.788376,290.684861 130.274218,290.684861 C134.755092,290.684861 137.884749,294.077444 137.884749,298.174336 L137.884749,298.218975 C137.884749,302.315867 134.710383,305.753089 130.229508,305.753089 C125.748634,305.753089 122.623944,302.360506 122.623944,298.258654" id="Fill-40" fill="#DEEDED"></path><polygon id="Fill-43" fill="#DEEDED" points="156.06458 293.306177 151.434675 293.306177 151.434675 290.930377 163.277695 290.930377 163.277695 293.306177 158.647789 293.306177 158.647789 305.502613 156.06458 305.502613"></polygon><path d="M173.357178,298.154496 C175.190263,298.154496 176.357675,297.197232 176.357675,295.719177 L176.357675,295.679498 C176.357675,294.117124 175.234973,293.264018 173.337308,293.264018 L169.606557,293.264018 L169.606557,298.154496 L173.357178,298.154496 Z M167.043219,290.932857 L173.545951,290.932857 C175.379036,290.932857 176.819672,291.473488 177.758569,292.391073 C178.528564,293.184659 178.965723,294.260961 178.965723,295.53566 L178.965723,295.575339 C178.965723,297.966019 177.530055,299.404395 175.483358,299.989665 L179.422752,305.500133 L176.402385,305.500133 L172.815698,300.426138 L169.606557,300.426138 L169.606557,305.500133 L167.043219,305.500133 L167.043219,290.932857 Z" id="Fill-45" fill="#DEEDED"></path><path d="M182.943368,299.322061 L182.943368,290.934841 L185.506706,290.934841 L185.506706,299.217902 C185.506706,301.921057 186.902633,303.379273 189.192747,303.379273 C191.467958,303.379273 192.863885,302.005376 192.863885,299.322061 L192.863885,290.934841 L195.432191,290.934841 L195.432191,299.198063 C195.432191,303.54791 192.968207,305.730273 189.153005,305.730273 C185.357675,305.730273 182.943368,303.54791 182.943368,299.322061" id="Fill-47" fill="#DEEDED"></path><path d="M199.030303,303.378777 L200.575261,301.548567 C201.971187,302.758787 203.367114,303.443256 205.180328,303.443256 C206.765027,303.443256 207.763537,302.714148 207.763537,301.613046 L207.763537,301.568407 C207.763537,300.526824 207.182315,299.966354 204.474913,299.341404 C201.365127,298.592457 199.611525,297.679832 199.611525,294.991557 L199.611525,294.951878 C199.611525,292.45208 201.697963,290.726029 204.594138,290.726029 C206.725286,290.726029 208.414307,291.370818 209.889717,292.556238 L208.513661,294.490606 C207.202186,293.513502 205.89071,292.992711 204.549429,292.992711 C203.054148,292.992711 202.174863,293.766458 202.174863,294.718762 L202.174863,294.763401 C202.174863,295.889302 202.845504,296.385294 205.637357,297.054883 C208.722305,297.79887 210.321908,298.904932 210.321908,301.320411 L210.321908,301.360091 C210.321908,304.088045 208.180825,305.709938 205.115748,305.709938 C202.880278,305.709938 200.778937,304.941151 199.030303,303.378777" id="Fill-49" fill="#DEEDED"></path><polygon id="Fill-51" fill="#DEEDED" points="217.678589 293.306177 213.048684 293.306177 213.048684 290.930377 224.886736 290.930377 224.886736 293.306177 220.261798 293.306177 220.261798 305.502613 217.678589 305.502613"></polygon></g></g></svg>